<svg width="24px" height="24px" viewBox="0 0 24 24" version="1.1" xmlns="http://www.w3.org/2000/svg" xmlns:xlink="http://www.w3.org/1999/xlink">
    <path fill="#FFFFFF" d="M14.6328,14.2577583 L18.6024667,14.2577583 C18.80955,14.2577583 18.9774667,14.425675 18.9774667,14.6328417 C18.9773833,14.7322583 18.9378833,14.8275917 18.8676333,14.897925 L14.8979667,18.867675 C14.75155,19.0140917 14.51405,19.0140917 14.3676333,18.8675917 C14.2973,18.7973417 14.2578,18.701925 14.2578,18.6025083 L14.2578,14.6327583 C14.2578,14.425675 14.4257167,14.2577583 14.6328,14.2577583 Z M5.6328,19.5077583 C5.01146667,19.5077583 4.5078,19.0040917 4.5078,18.3827583 L4.5078,5.63275833 C4.5078,5.011425 5.01146667,4.50775833 5.6328,4.50775833 L18.3828,4.50775833 C19.0041333,4.50775833 19.5078,5.011425 19.5078,5.63275833 L19.5078,12.3827583 C19.5078,13.0040917 19.0041333,13.5077583 18.3828,13.5077583 L14.6328,13.5077583 C14.0114667,13.5077583 13.5078,14.011425 13.5078,14.6327583 L13.5078,18.3827583 C13.5078,19.0040917 13.0041333,19.5077583 12.3828,19.5077583 L5.6328,19.5077583 Z"></path>
</svg>